Normalized EMG Linear Envelopes
nRows=253
nColumns=4

endheader
time	 med_gas_r	  soleus_r	 tib_ant_r	
2.95613	  0.018705	  0.026202	  0.012071	
2.99174	  0.018910	  0.025320	  0.012048	
3.02736	  0.019116	  0.024532	  0.012050	
3.06298	  0.019311	  0.023904	  0.012091	
3.09859	  0.019492	  0.023443	  0.012195	
3.13421	  0.019677	  0.023112	  0.012374	
3.16982	  0.019902	  0.022867	  0.012615	
3.20544	  0.020194	  0.022680	  0.012877	
3.24106	  0.020550	  0.022544	  0.013102	
3.27667	  0.020926	  0.022461	  0.013254	
3.31229	  0.021259	  0.022440	  0.013332	
3.3479	  0.021495	  0.022494	  0.013367	
3.38352	  0.021613	  0.022632	  0.013384	
3.41914	  0.021629	  0.022850	  0.013381	
3.45475	  0.021576	  0.023132	  0.013338	
3.49037	  0.021494	  0.023463	  0.013247	
3.52598	  0.021431	  0.023834	  0.013122	
3.5616	  0.021434	  0.024224	  0.012993	
3.59722	  0.021538	  0.024585	  0.012882	
3.63283	  0.021726	  0.024851	  0.012797	
3.66845	  0.021925	  0.024973	  0.012740	
3.70406	  0.022039	  0.024940	  0.012714	
3.73968	  0.022015	  0.024786	  0.012728	
3.7753	  0.021865	  0.024563	  0.012788	
3.81091	  0.021638	  0.024322	  0.012906	
3.84653	  0.021372	  0.024101	  0.013101	
3.88214	  0.021080	  0.023930	  0.013406	
3.91776	  0.020774	  0.023834	  0.013849	
3.95338	  0.020485	  0.023836	  0.014429	
3.98899	  0.020263	  0.023951	  0.015095	
4.02461	  0.020150	  0.024176	  0.015732	
4.06022	  0.020172	  0.024481	  0.016159	
4.09584	  0.020334	  0.024815	  0.016164	
4.13146	  0.020611	  0.025120	  0.015593	
4.16707	  0.020935	  0.025344	  0.014457	
4.20269	  0.021190	  0.025464	  0.012997	
4.2383	  0.021236	  0.025489	  0.011654	
4.27392	  0.020957	  0.025445	  0.010987	
4.30954	  0.020307	  0.025357	  0.011635	
4.34515	  0.019337	  0.025237	  0.014352	
4.38077	  0.018197	  0.025118	  0.020010	
4.41638	  0.017143	  0.025119	  0.029483	
4.452	  0.016573	  0.025464	  0.043488	
4.48762	  0.017051	  0.026437	  0.062578	
4.52323	  0.019250	  0.028270	  0.087333	
4.55885	  0.023816	  0.031039	  0.118335	
4.59446	  0.031305	  0.034626	  0.155403	
4.63008	  0.042278	  0.038734	  0.196253	
4.6657	  0.057291	  0.042975	  0.235865	
4.70131	  0.076263	  0.046972	  0.267921	
4.73693	  0.097324	  0.050446	  0.287851	
4.77254	  0.116305	  0.053210	  0.295097	
4.80816	  0.128224	  0.055147	  0.292651	
4.84378	  0.130350	  0.056249	  0.284552	
4.87939	  0.124303	  0.056679	  0.273897	
4.91501	  0.114998	  0.056754	  0.262824	
4.95062	  0.107143	  0.056799	  0.253567	
4.98624	  0.102359	  0.057024	  0.248740	
5.02186	  0.099182	  0.057532	  0.250390	
5.05747	  0.095361	  0.058382	  0.258855	
5.09309	  0.090043	  0.059567	  0.272591	
5.1287	  0.084067	  0.060903	  0.289124	
5.16432	  0.078700	  0.062047	  0.306348	
5.19994	  0.074509	  0.062689	  0.323133	
5.23555	  0.071411	  0.062720	  0.338743	
5.27117	  0.069384	  0.062179	  0.351757	
5.30678	  0.068661	  0.061083	  0.359867	
5.3424	  0.069174	  0.059409	  0.361098	
5.37802	  0.070084	  0.057248	  0.355381	
5.41363	  0.070220	  0.054953	  0.344820	
5.44925	  0.069139	  0.053073	  0.332401	
5.48486	  0.067663	  0.052137	  0.320581	
5.52048	  0.067235	  0.052447	  0.311028	
5.5561	  0.068657	  0.053983	  0.305138	
5.59171	  0.071389	  0.056413	  0.303985	
5.62733	  0.074042	  0.059176	  0.307413	
5.66294	  0.075500	  0.061638	  0.313449	
5.69856	  0.075649	  0.063281	  0.319043	
5.73418	  0.075173	  0.063858	  0.321606	
5.76979	  0.074856	  0.063462	  0.319933	
5.80541	  0.075167	  0.062491	  0.313966	
5.84102	  0.076426	  0.061544	  0.304028	
5.87664	  0.079137	  0.061260	  0.290403	
5.91226	  0.083989	  0.062213	  0.273563	
5.94787	  0.091468	  0.064917	  0.254755	
5.98349	  0.101399	  0.069782	  0.236329	
6.0191	  0.112661	  0.076765	  0.221459	
6.05472	  0.123121	  0.084888	  0.213448	
6.09034	  0.129997	  0.092207	  0.214936	
6.12595	  0.130933	  0.096668	  0.227135	
6.16157	  0.125453	  0.097313	  0.249169	
6.19718	  0.115658	  0.094829	  0.277941	
6.2328	  0.105314	  0.091013	  0.308924	
6.26842	  0.097938	  0.087683	  0.337612	
6.30403	  0.095295	  0.085895	  0.360759	
6.33965	  0.097120	  0.085740	  0.376860	
6.37526	  0.101706	  0.086565	  0.385987	
6.41088	  0.106722	  0.087377	  0.389294	
6.4465	  0.110005	  0.087273	  0.388333	
6.48211	  0.110284	  0.085746	  0.384406	
6.51773	  0.107588	  0.082724	  0.378377	
6.55334	  0.103002	  0.078445	  0.371150	
6.58896	  0.097978	  0.073381	  0.364273	
6.62458	  0.093748	  0.068253	  0.359896	
6.66019	  0.091165	  0.063946	  0.359990	
6.69581	  0.090750	  0.061210	  0.365466	
6.73142	  0.092647	  0.060392	  0.375815	
6.76704	  0.096507	  0.061465	  0.389260	
6.80266	  0.101557	  0.064249	  0.403137	
6.83827	  0.106966	  0.068467	  0.414487	
6.87389	  0.112261	  0.073498	  0.420937	
6.9095	  0.117379	  0.078190	  0.421520	
6.94512	  0.122308	  0.081174	  0.416821	
6.98074	  0.126798	  0.081618	  0.408374	
7.01635	  0.130505	  0.079785	  0.398071	
7.05197	  0.133351	  0.076884	  0.388132	
7.08758	  0.135605	  0.074307	  0.381118	
7.1232	  0.137610	  0.072916	  0.379220	
7.15882	  0.139479	  0.072841	  0.383160	
7.19443	  0.140905	  0.073777	  0.392006	
7.23005	  0.141094	  0.075407	  0.404418	
7.26566	  0.139046	  0.077650	  0.420177	
7.30128	  0.134297	  0.080574	  0.440132	
7.3369	  0.127595	  0.084132	  0.464118	
7.37251	  0.120719	  0.087960	  0.488710	
7.40813	  0.115405	  0.091430	  0.507515	
7.44374	  0.112369	  0.093891	  0.514517	
7.47936	  0.111255	  0.094892	  0.507813	
7.51498	  0.111341	  0.094276	  0.490548	
7.55059	  0.112220	  0.092161	  0.468681	
7.58621	  0.113933	  0.088900	  0.447972	
7.62182	  0.116645	  0.085077	  0.432355	
7.65744	  0.120201	  0.081474	  0.423837	
7.69306	  0.123905	  0.078902	  0.422895	
7.72867	  0.126729	  0.077925	  0.429015	
7.76429	  0.127940	  0.078620	  0.441521	
7.7999	  0.127687	  0.080566	  0.460287	
7.83552	  0.126970	  0.083061	  0.485371	
7.87114	  0.126858	  0.085412	  0.515604	
7.90675	  0.127620	  0.087122	  0.547528	
7.94237	  0.128605	  0.087919	  0.575943	
7.97798	  0.129006	  0.087729	  0.595676	
8.0136	  0.128684	  0.086692	  0.603207	
8.04922	  0.128139	  0.085178	  0.597527	
8.08483	  0.127728	  0.083666	  0.580356	
8.12045	  0.127158	  0.082474	  0.555645	
8.15606	  0.125934	  0.081569	  0.528174	
8.19168	  0.124194	  0.080677	  0.501806	
8.2273	  0.122803	  0.079650	  0.478517	
8.26291	  0.122454	  0.078773	  0.458801	
8.29853	  0.122778	  0.078750	  0.443102	
8.33414	  0.122484	  0.080389	  0.433250	
8.36976	  0.120457	  0.084173	  0.432587	
8.40538	  0.116743	  0.089925	  0.444032	
8.44099	  0.112566	  0.096750	  0.467255	
8.47661	  0.109520	  0.103363	  0.497724	
8.51222	  0.108645	  0.108647	  0.529289	
8.54784	  0.109962	  0.112106	  0.558467	
8.58346	  0.112612	  0.113890	  0.586381	
8.61907	  0.115517	  0.114471	  0.616268	
8.65469	  0.118137	  0.114250	  0.648700	
8.6903	  0.120633	  0.113325	  0.678903	
8.72592	  0.123168	  0.111539	  0.698747	
8.76154	  0.125077	  0.108758	  0.701908	
8.79715	  0.125007	  0.105192	  0.687883	
8.83277	  0.122136	  0.101455	  0.661846	
8.86838	  0.117236	  0.098256	  0.631376	
8.904	  0.112369	  0.095987	  0.603437	
8.93962	  0.109395	  0.094564	  0.583294	
8.97523	  0.108689	  0.093621	  0.574207	
9.01085	  0.109138	  0.092817	  0.576479	
9.04646	  0.109213	  0.092052	  0.586576	
9.08208	  0.108093	  0.091487	  0.598149	
9.1177	  0.105986	  0.091448	  0.605217	
9.15331	  0.103678	  0.092267	  0.605321	
9.18893	  0.101933	  0.094091	  0.600096	
9.22454	  0.101319	  0.096734	  0.592991	
9.26016	  0.102257	  0.099699	  0.586361	
9.29578	  0.104817	  0.102375	  0.580461	
9.33139	  0.108293	  0.104267	  0.574868	
9.36701	  0.111251	  0.105095	  0.570585	
9.40262	  0.112419	  0.104777	  0.570640	
9.43824	  0.111713	  0.103438	  0.578594	
9.47386	  0.110381	  0.101475	  0.596288	
9.50947	  0.110046	  0.099576	  0.622608	
9.54509	  0.111482	  0.098523	  0.654050	
9.5807	  0.114132	  0.098821	  0.686406	
9.61632	  0.116724	  0.100423	  0.716134	
9.65194	  0.118414	  0.102732	  0.740406	
9.68755	  0.119444	  0.104864	  0.756424	
9.72317	  0.120713	  0.105995	  0.761639	
9.75878	  0.122675	  0.105689	  0.755352	
9.7944	  0.124609	  0.104108	  0.739944	
9.83002	  0.124971	  0.101954	  0.719949	
9.86563	  0.122491	  0.100048	  0.699904	
9.90125	  0.117124	  0.098784	  0.683306	
9.93686	  0.110152	  0.097929	  0.672924	
9.97248	  0.103470	  0.097028	  0.670506	
10.0081	  0.098588	  0.096074	  0.675286	
10.0437	  0.095992	  0.095741	  0.683444	
10.0793	  0.095226	  0.096886	  0.690234	
10.1149	  0.095568	  0.099824	  0.693043	
10.1506	  0.096707	  0.104092	  0.692274	
10.1862	  0.098770	  0.108911	  0.689653	
10.2218	  0.101713	  0.113758	  0.686616	
10.2574	  0.104817	  0.118436	  0.684523	
10.293	  0.106960	  0.122615	  0.685139	
10.3286	  0.107404	  0.125476	  0.689253	
10.3643	  0.106252	  0.125998	  0.694509	
10.3999	  0.104115	  0.123697	  0.695613	
10.4355	  0.101443	  0.119113	  0.687629	
10.4711	  0.098272	  0.113612	  0.669299	
10.5067	  0.094584	  0.108746	  0.643340	
10.5423	  0.090761	  0.105700	  0.614243	
10.578	  0.087545	  0.105116	  0.586372	
10.6136	  0.085529	  0.107136	  0.563715	
10.6492	  0.084738	  0.111435	  0.550281	
10.6848	  0.084745	  0.117196	  0.549602	
10.7204	  0.085166	  0.123179	  0.563296	
10.756	  0.085998	  0.127954	  0.589818	
10.7916	  0.087466	  0.130229	  0.624462	
10.8273	  0.089596	  0.129162	  0.660571	
10.8629	  0.091941	  0.124606	  0.690970	
10.8985	  0.093704	  0.117258	  0.708973	
10.9341	  0.094143	  0.108600	  0.709643	
10.9697	  0.092978	  0.100501	  0.691996	
11.0053	  0.090600	  0.094555	  0.660716	
11.041	  0.088037	  0.091518	  0.624847	
11.0766	  0.086771	  0.091223	  0.593474	
11.1122	  0.088413	  0.093005	  0.571731	
11.1478	  0.094245	  0.096101	  0.559725	
11.1834	  0.104798	  0.099582	  0.553253	
11.219	  0.119729	  0.102018	  0.544224	
11.2547	  0.137903	  0.101602	  0.521757	
11.2903	  0.157321	  0.097016	  0.476411	
11.3259	  0.174962	  0.088350	  0.406292	
11.3615	  0.187257	  0.077148	  0.319718	
11.3971	  0.191542	  0.065523	  0.231264	
11.4327	  0.187503	  0.055136	  0.154287	
11.4684	  0.177211	  0.046801	  0.095821	
11.504	  0.163659	  0.040700	  0.056418	
11.5396	  0.149272	  0.036739	  0.032927	
11.5752	  0.135576	  0.034708	  0.021116	
11.6108	  0.123769	  0.034250	  0.016921	
11.6464	  0.115020	  0.034852	  0.016821	
11.682	  0.109961	  0.035933	  0.018095	
11.7177	  0.107967	  0.036985	  0.019067	
11.7533	  0.107121	  0.037650	  0.019118	
11.7889	  0.105118	  0.037703	  0.018363	
11.8245	  0.100421	  0.037036	  0.017187	
11.8601	  0.092836	  0.035657	  0.015923	
11.8957	  0.083177	  0.033707	  0.014755	
11.9314	  0.072488	  0.031442	  0.013747	
